<?xml version="1.0" standalone="no"?>
<!DOCTYPE svg PUBLIC "-//W3C//DTD SVG 20010904//EN"
 "http://www.w3.org/TR/2001/REC-SVG-20010904/DTD/svg10.dtd">
<svg version="1.0" xmlns="http://www.w3.org/2000/svg"
 width="728.000000pt" height="508.000000pt" viewBox="0 0 728.000000 508.000000"
 preserveAspectRatio="xMidYMid meet">

<g transform="translate(0.000000,508.000000) scale(0.100000,-0.100000)"
fill="#2c6ed5" stroke="none">
<path d="M2835 5064 c-798 -85 -1360 -272 -1464 -487 -19 -39 -21 -62 -21
-221 0 -207 5 -222 95 -304 211 -194 740 -337 1500 -408 230 -21 922 -30 1165
-15 877 55 1515 215 1744 438 68 66 76 94 76 291 0 193 -5 214 -65 281 -179
198 -717 354 -1484 431 -160 16 -1384 11 -1546 -6z m1141 -375 c694 -7 1380
-79 1512 -160 18 -10 32 -27 32 -38 0 -86 -595 -167 -1409 -191 -251 -7 -943
-4 -1111 5 -47 2 -137 7 -200 10 -604 30 -1040 104 -1040 176 0 101 651 183
1565 198 226 3 413 5 416 4 3 -1 109 -3 235 -4z"/>
<path d="M1351 2175 c-1 -1845 -9 -1669 82 -1752 209 -192 710 -336 1418 -408
206 -21 1372 -21 1578 0 534 54 992 161 1251 291 63 31 145 91 182 132 74 82
68 -78 67 1729 0 997 -4 1616 -10 1597 -12 -43 -87 -124 -156 -170 -119 -79
-348 -164 -602 -225 -757 -180 -1922 -203 -2785 -53 -570 99 -974 280 -1016
458 -5 17 -8 -702 -9 -1599z m1155 405 c56 -5 132 -17 168 -27 l66 -17 0 -153
0 -152 -67 34 c-94 48 -192 68 -306 63 -146 -7 -227 -62 -227 -156 0 -42 4
-50 54 -98 35 -34 83 -66 142 -94 269 -127 278 -133 345 -199 79 -79 108 -136
118 -231 27 -256 -101 -426 -369 -487 -92 -21 -363 -24 -455 -4 -79 16 -183
50 -190 61 -5 8 -8 137 -6 268 l1 53 33 -25 c46 -36 151 -83 227 -102 98 -25
248 -16 316 19 63 32 89 78 81 144 -8 75 -82 133 -277 218 -251 110 -355 216
-379 387 -31 219 86 397 306 467 123 39 238 48 419 31z m1386 -10 c32 -6 89
-23 126 -38 201 -82 347 -258 404 -488 30 -123 30 -321 0 -446 -52 -214 -175
-377 -356 -469 l-86 -44 48 -43 c110 -101 186 -139 306 -152 76 -9 146 -4 208
16 15 4 16 -4 13 -73 -2 -43 -4 -106 -4 -139 l-1 -62 -84 -12 c-110 -17 -254
-9 -330 18 -124 45 -268 159 -437 347 -45 50 -47 51 -130 63 -197 28 -344 114
-459 267 -133 178 -180 428 -129 678 48 237 176 413 373 512 156 79 339 101
538 65z m1116 -10 l22 0 0 -610 0 -610 280 0 280 0 0 -140 0 -140 -450 0 -450
0 0 750 0 749 58 4 c31 2 98 3 147 1 50 -2 100 -3 113 -4z"/>
<path d="M3633 2281 c-75 -12 -136 -46 -187 -102 -85 -95 -121 -206 -120 -369
1 -170 36 -271 126 -366 75 -79 128 -99 263 -99 88 0 117 4 145 19 148 79 220
221 220 437 0 185 -31 287 -116 378 -84 91 -190 124 -331 102z"/>
</g>
</svg>
