<?xml version="1.0" standalone="no"?>
<!DOCTYPE svg PUBLIC "-//W3C//DTD SVG 20010904//EN"
 "http://www.w3.org/TR/2001/REC-SVG-20010904/DTD/svg10.dtd">
<svg version="1.0" xmlns="http://www.w3.org/2000/svg"
 width="512.000000pt" height="512.000000pt" viewBox="0 0 512.000000 512.000000"
 preserveAspectRatio="xMidYMid meet">

<g transform="translate(0.000000,512.000000) scale(0.100000,-0.100000)"
fill="#2c6ed5" stroke="none">
<path d="M2475 4954 c-311 -22 -542 -70 -781 -163 -921 -359 -1526 -1243
-1526 -2231 0 -1322 1070 -2392 2392 -2392 1504 0 2633 1370 2349 2849 -183
951 -941 1709 -1892 1892 -163 31 -423 53 -542 45z m400 -289 c348 -54 672
-190 960 -402 116 -86 342 -312 428 -428 214 -290 347 -610 404 -970 23 -151
23 -459 0 -610 -57 -360 -190 -680 -404 -970 -86 -116 -312 -342 -428 -428
-291 -215 -609 -347 -970 -404 -151 -23 -459 -23 -610 0 -361 57 -680 190
-970 404 -123 91 -336 306 -429 432 -216 292 -346 603 -403 966 -23 151 -23
459 0 610 57 360 190 680 404 970 86 116 312 342 428 428 329 243 696 382
1115 421 85 8 375 -4 475 -19z"/>
<path d="M2474 4070 c-18 -6 -54 -25 -80 -42 -206 -138 -154 -455 85 -524 145
-43 305 37 357 177 9 24 17 74 17 111 0 113 -58 204 -166 260 -47 24 -162 34
-213 18z"/>
<path d="M1424 3411 c-63 -39 -78 -149 -26 -201 38 -38 68 -45 337 -80 443
-58 448 -60 483 -124 15 -27 17 -61 14 -271 -5 -445 -13 -497 -232 -1404 -38
-155 -41 -178 -31 -213 31 -103 188 -104 229 -1 6 16 28 93 47 173 86 344 197
757 216 799 29 67 56 91 99 91 25 0 43 -7 57 -22 46 -51 52 -70 198 -638 53
-206 101 -387 107 -403 27 -69 114 -98 179 -60 28 17 59 67 59 96 0 9 -21 100
-46 204 -211 870 -221 936 -226 1378 -3 214 -1 244 15 272 34 64 34 64 482
123 269 35 299 42 337 80 57 57 34 176 -39 207 -33 13 -50 12 -207 -11 -650
-99 -1192 -99 -1830 -1 -191 30 -183 30 -222 6z"/>
</g>
</svg>
