<?xml version="1.0" standalone="no"?>
<!DOCTYPE svg PUBLIC "-//W3C//DTD SVG 20010904//EN"
 "http://www.w3.org/TR/2001/REC-SVG-20010904/DTD/svg10.dtd">
<svg version="1.0" xmlns="http://www.w3.org/2000/svg"
 width="452.000000pt" height="452.000000pt" viewBox="0 0 452.000000 452.000000"
 preserveAspectRatio="xMidYMid meet">

<g transform="translate(0.000000,452.000000) scale(0.100000,-0.100000)"
fill="#2c6ed5" stroke="none">
<path d="M2043 4130 c-430 -54 -815 -243 -1116 -546 -356 -360 -547 -822 -547
-1324 0 -505 197 -977 557 -1332 379 -375 863 -564 1393 -545 356 13 655 108
959 305 113 73 177 125 295 240 406 400 608 970 545 1540 -18 161 -36 234 -65
260 -49 43 -135 17 -149 -46 -3 -15 1 -61 10 -102 58 -274 29 -627 -72 -900
-350 -941 -1421 -1379 -2321 -950 -350 167 -635 453 -802 802 -367 770 -107
1684 612 2152 432 281 969 347 1466 181 127 -43 322 -142 426 -216 l75 -54 -6
-76 c-4 -57 -1 -88 11 -126 64 -192 317 -251 461 -108 177 177 53 475 -198
475 -37 0 -83 -7 -103 -15 l-36 -15 -86 61 c-231 165 -493 274 -777 325 -106
19 -426 27 -532 14z"/>
<path d="M1975 3188 c-17 -44 -555 -1664 -555 -1670 0 -5 83 -8 184 -8 l184 0
47 140 47 140 283 0 282 0 -46 185 -46 185 -172 0 c-95 0 -173 3 -173 7 0 15
245 743 250 743 3 0 110 -315 238 -700 l234 -700 184 0 c101 0 184 3 184 8 0
4 -125 383 -278 842 l-279 835 -282 3 c-220 2 -283 0 -286 -10z"/>
</g>
</svg>
